<svg xmlns="http://www.w3.org/2000/svg" viewBox="0 0 520 120" width="520" height="120">
  <defs>
    <linearGradient id="sparkGrad" x1="0%" y1="0%" x2="100%" y2="100%">
      <stop offset="0%" stop-color="#c084fc"/>
      <stop offset="50%" stop-color="#a855f7"/>
      <stop offset="100%" stop-color="#7c3aed"/>
    </linearGradient>
    <linearGradient id="textGrad" x1="0%" y1="0%" x2="100%" y2="0%">
      <stop offset="0%" stop-color="#c084fc"/>
      <stop offset="100%" stop-color="#7c3aed"/>
    </linearGradient>
  </defs>
  <!-- Sparkle mark -->
  <g transform="translate(60, 60)">
    <!-- Main 4-point star -->
    <path d="M0,-48 C4,0 12,8 48,0 C12,4 4,12 0,48 C-4,12 -12,4 -48,0 C-12,-4 -4,-12 0,-48 Z" fill="url(#sparkGrad)"/>
    <!-- Inner glow star -->
    <path d="M0,-24 C2,0 6,4 24,0 C6,2 2,6 0,24 C-2,6 -6,2 -24,0 C-6,-2 -2,-6 0,-24 Z" fill="#e9d5ff" opacity="0.45"/>
    <!-- Center dot -->
    <circle cx="0" cy="0" r="5" fill="#e9d5ff" opacity="0.8"/>
    <circle cx="0" cy="0" r="2.5" fill="white"/>
    <!-- Tiny accent spark -->
    <path d="M30,-30 L32,-24 L38,-22 L32,-20 L30,-14 L28,-20 L22,-22 L28,-24 Z" fill="#c084fc" opacity="0.5"/>
  </g>
  <!-- Wordmark -->
  <text x="130" y="76" font-family="system-ui, -apple-system, 'Segoe UI', sans-serif" font-size="52" font-weight="700" letter-spacing="-1" fill="url(#textGrad)">Orianna</text>
</svg>
